# xmcd
#
# Track frame offsets:
#	150
#	22651
#	44040
#	62166
#	81977
#	103577
#	121463
#	140871
#	157837
#	174192
#	193844
#	216972
#	237857
#	256006
#	278730
#	294340
#	314454
#	336976
#
# Disc length: 4794 seconds
#
# Revision: 0
# Processed by: cddbd v1.5.2PL0 Copyright (c) Steve Scherf et al.
# Submitted via: EasyCDDAExtractor 2010.6.0.0
#
DISCID=0712b812
DTITLE=Various Artist - 群星合集
DYEAR=2015
DGENRE=Hip-Hop
TTITLE0=筷子兄弟 - 老男孩
TTITLE1=g.e.m.邓紫棋 - 你把我灌醉
TTITLE2=李圣杰 - 最近
TTITLE3=何润东 - 没有我你怎么办
TTITLE4=金莎 - 梦千年之恋
TTITLE5=罗百吉 - 你的抱抱
TTITLE6=蓝波 - 你到底有没有爱过我
TTITLE7=许慧欣 - 爱情抗体
TTITLE8=陈奕迅 - K歌之王
TTITLE9=李佳薇 - 煎熬
TTITLE10=祁隆 - 等你等了那么久
TTITLE11=任贤齐 - 一个人(《好心相爱》插曲)
TTITLE12=谢霆锋 - 非走不可
TTITLE13=张杰 - 我们都一样
TTITLE14=庄心妍 - 一万个舍不得
TTITLE15=张敬轩 - 断点
TTITLE16=郑源 - 爱情码头
TTITLE17=张宇 - 趁早
EXTD=
EXTT0=
EXTT1=
EXTT2=
EXTT3=
EXTT4=
EXTT5=
EXTT6=
EXTT7=
EXTT8=
EXTT9=
EXTT10=
EXTT11=
EXTT12=
EXTT13=
EXTT14=
EXTT15=
EXTT16=
EXTT17=
PLAYORDER=
